<svg width="153" height="153" viewBox="0 0 153 153" fill="none" xmlns="http://www.w3.org/2000/svg">
<circle cx="76.5" cy="76.5" r="76.5" fill="#E12C30"/>
<g clip-path="url(#clip0)">
<path d="M125.387 69.3884H111.536L126.516 54.4086C127.141 53.7836 127.141 52.7553 126.516 52.1303L95.871 21.4852C95.246 20.8602 94.2177 20.8602 93.5927 21.4852L45.6895 69.3884H28.6129C27.7258 69.3884 27 70.1142 27 71.0013V112.937C27 113.824 27.7258 114.55 28.6129 114.55H52.1411L58.129 120.538C58.4516 120.86 58.8548 121.001 59.2782 121.001C59.7016 121.001 60.1048 120.84 60.4274 120.538L66.4153 114.55H125.387C126.274 114.55 127 113.824 127 112.937V71.0013C127 70.1142 126.274 69.3884 125.387 69.3884ZM94.7419 24.8924L123.109 53.2594L106.98 69.3884H94.6613C94.2984 65.2553 92.504 61.4247 89.5403 58.461C82.625 51.5457 71.375 51.5457 64.4395 58.461C61.4758 61.4247 59.7016 65.2553 59.3186 69.3884H50.2258L94.7419 24.8924ZM69.2984 69.3884C69.0766 68.34 69.379 67.211 70.1452 66.4448L73.0887 69.3884H69.2984ZM86.6976 69.3884C86.5161 69.1465 86.3347 68.9247 86.1129 68.7231C83.5927 66.2029 79.5 66.2029 76.9798 68.7231L72.4234 64.1666C73.6331 62.9569 75.7702 62.9569 76.9798 64.1666L79.2581 61.8884C78.0484 60.6787 76.4153 59.9932 74.7016 59.9932C72.9879 59.9932 71.3548 60.6586 70.1452 61.8884L68.996 60.7392L66.7177 63.0174L67.8669 64.1666C66.4556 65.5779 65.8306 67.5134 66.0323 69.3884H62.5847C62.9476 66.1223 64.379 63.0981 66.7379 60.7392C72.4032 55.0739 81.6169 55.0739 87.2621 60.7392C89.621 63.0981 91.0524 66.1223 91.4153 69.3884H86.6976ZM59.2581 117.11L56.6976 114.55H61.8185L59.2581 117.11ZM123.774 111.324H30.2258V72.6142H123.774V111.324Z" fill="white"/>
<path d="M72.1612 96.8069H68.9354C68.9354 100.355 71.8387 103.259 75.387 103.259V104.871H78.6128V103.259C82.1612 103.259 85.0645 100.355 85.0645 96.8069C85.0645 93.2585 82.1612 90.3553 78.6128 90.3553V83.9037C80.387 83.9037 81.8387 85.3553 81.8387 87.1295H85.0645C85.0645 83.5811 82.1612 80.6779 78.6128 80.6779V79.065H75.387V80.6779C71.8387 80.6779 68.9354 83.5811 68.9354 87.1295C68.9354 90.6779 71.8387 93.5811 75.387 93.5811V100.033C73.6128 100.033 72.1612 98.5811 72.1612 96.8069ZM72.1612 87.1295C72.1612 85.3553 73.6128 83.9037 75.387 83.9037V90.3553C73.6128 90.3553 72.1612 88.9037 72.1612 87.1295ZM78.6128 93.5811C80.387 93.5811 81.8387 95.0327 81.8387 96.8069C81.8387 98.5811 80.387 100.033 78.6128 100.033V93.5811Z" fill="white"/>
<path d="M77.0001 109.71C86.7783 109.71 94.7421 101.746 94.7421 91.9678C94.7421 82.1895 86.7783 74.2258 77.0001 74.2258C67.2219 74.2258 59.2582 82.1895 59.2582 91.9678C59.2582 101.746 67.2219 109.71 77.0001 109.71ZM77.0001 77.4516C85.0041 77.4516 91.5162 83.9637 91.5162 91.9678C91.5162 99.9718 85.0041 106.484 77.0001 106.484C68.9961 106.484 62.484 99.9718 62.484 91.9678C62.484 83.9637 68.9961 77.4516 77.0001 77.4516Z" fill="white"/>
<path d="M120.548 106.484V77.4521C120.548 76.565 119.823 75.8392 118.935 75.8392H99.5806V79.065H117.323V104.871H99.5806V108.097H118.935C119.823 108.097 120.548 107.371 120.548 106.484Z" fill="white"/>
<path d="M35.0646 108.097H54.4194V104.871H36.6775V79.065H54.4194V75.8392H35.0646C34.1775 75.8392 33.4517 76.565 33.4517 77.4521V106.484C33.4517 107.371 34.1775 108.097 35.0646 108.097Z" fill="white"/>
<path d="M95.1858 34.5683L113.432 52.8143L100.891 65.3546L103.17 67.6328L116.859 53.9433C117.484 53.3183 117.484 52.2901 116.859 51.6651L96.3148 31.1409C95.7099 30.536 94.6414 30.536 94.0366 31.1409L80.347 44.8304L82.6253 47.1086L95.1858 34.5683Z" fill="white"/>
</g>
<defs>
<clipPath id="clip0">
<rect width="100" height="100" fill="white" transform="translate(27 21)"/>
</clipPath>
</defs>
</svg>
