<svg width="153" height="153" viewBox="0 0 153 153" fill="none" xmlns="http://www.w3.org/2000/svg">
<circle cx="76.5" cy="76.5" r="76.5" fill="#E12C30"/>
<path d="M125.34 76.8819L113.062 67.5514L117.541 52.7551C117.836 51.7718 117.654 50.6969 117.063 49.8736C116.472 49.0503 115.494 48.5472 114.471 48.5244L99.0781 48.2499L94.0531 33.6137C93.7121 32.6304 92.939 31.8757 91.984 31.5555C91.0063 31.2354 89.9377 31.3955 89.0964 31.99L76.4772 40.8632L63.8807 31.9672C63.0394 31.3726 61.9708 31.2125 60.9931 31.5327C60.0154 31.8528 59.2423 32.6075 58.924 33.5909L53.899 48.2271L38.5059 48.5015C37.4827 48.5244 36.5277 49.0275 35.9138 49.8508C35.2999 50.674 35.1408 51.7489 35.4364 52.7323L39.9156 67.5285L27.6375 76.8591C26.8189 77.4765 26.3414 78.4599 26.3414 79.489C26.3414 80.5181 26.8189 81.4786 27.6375 82.1189L39.9156 91.4495L35.4591 106.269C35.1635 107.252 35.3454 108.327 35.9366 109.15C36.5277 109.973 37.5054 110.477 38.5286 110.499L53.9218 110.774L58.9467 125.41C59.2878 126.393 60.0609 127.148 61.0158 127.468C61.9935 127.788 63.0622 127.628 63.9035 127.034L76.5227 118.161L89.1419 127.034C89.6876 127.422 90.3469 127.628 91.0063 127.628C91.3474 127.628 91.6885 127.583 92.0068 127.468C92.9845 127.148 93.7575 126.393 94.0759 125.41L99.1008 110.774L114.494 110.499C115.517 110.477 116.472 109.973 117.086 109.15C117.677 108.327 117.859 107.252 117.564 106.269L113.084 91.4724L125.362 82.1418C126.181 81.5244 126.658 80.541 126.658 79.5119C126.658 78.4828 126.158 77.4994 125.34 76.8819ZM64.199 56.7572C68.8375 56.7572 72.5891 61.3996 72.5891 67.1397C72.5891 72.8799 68.8375 77.5223 64.199 77.5223C59.5606 77.5223 55.809 72.8799 55.809 67.1397C55.809 61.3996 59.5606 56.7572 64.199 56.7572ZM63.6534 102.289C63.1304 103.021 62.2891 103.456 61.3796 103.456C60.7885 103.456 60.22 103.273 59.7425 102.93C58.492 102.015 58.1964 100.254 59.1059 98.9963L89.3238 56.6886C89.8467 55.9568 90.688 55.5223 91.5975 55.5223C92.1887 55.5223 92.7571 55.7052 93.2346 56.0483C94.4851 56.963 94.7807 58.7239 93.8712 59.9817L63.6534 102.289ZM88.8008 102.267C84.1624 102.267 80.4107 97.6242 80.4107 91.884C80.4107 86.1439 84.1624 81.5015 88.8008 81.5015C93.4392 81.5015 97.1909 86.1439 97.1909 91.884C97.1909 97.6013 93.4392 102.267 88.8008 102.267Z" stroke="white" stroke-width="4" stroke-miterlimit="10"/>
</svg>
