<svg width="153" height="153" viewBox="0 0 153 153" fill="none" xmlns="http://www.w3.org/2000/svg">
<circle cx="76.5" cy="76.5" r="76.5" fill="#E12C30"/>
<g clip-path="url(#clip0)">
<path d="M123 44.0755H101.193C103.595 40.5873 103.817 35.8689 101.396 32.0869C98.1622 27.0013 91.3429 25.4775 86.2238 28.7087C84.9302 29.5166 82.768 31.4259 78.961 38.531C78.6283 39.1736 78.2957 39.7978 77.9815 40.3853C77.6674 39.7794 77.3532 39.1552 77.0021 38.531C73.232 31.4076 71.0698 29.4982 69.7762 28.6904C64.6571 25.4775 57.8563 26.983 54.6037 32.0685C53.0329 34.5287 52.5154 37.4662 53.1622 40.3119C53.4764 41.6705 54.0308 42.9556 54.807 44.0755H33V70.7334H36.2341V121.001H119.766V70.7334H123V44.0755ZM89.1992 33.3537C90.0862 32.8029 91.0842 32.5091 92.1006 32.5091C92.5072 32.5091 92.9138 32.5459 93.3018 32.6377C94.7248 32.9498 95.9261 33.7943 96.7207 35.0244C98.3285 37.5396 97.5708 40.8994 95.039 42.4966C93.5051 43.4513 87.924 44.0021 82.3429 44.0755C84.8008 39.1002 87.6838 34.3084 89.1992 33.3537ZM59.2793 35.0244C60.0554 33.7943 61.2752 32.9498 62.6982 32.6377C63.1047 32.5459 63.5113 32.5091 63.8994 32.5091C64.9158 32.5091 65.9138 32.7845 66.8008 33.3537C68.3347 34.3084 71.2177 39.1185 73.6756 44.0755C70.885 44.0388 68.0945 43.8736 65.8029 43.6166C63.5113 43.3595 61.7372 42.974 60.9795 42.4966C59.7598 41.7255 58.8912 40.5138 58.577 39.1185C58.2628 37.6865 58.5031 36.2361 59.2793 35.0244ZM66.7823 115.494H41.7782V70.7334H66.7823V115.494ZM66.7823 65.2255H38.5441V49.5834H66.7823V65.2255ZM83.6735 115.494H72.3265V49.5834H83.6735V115.494ZM114.222 115.494H89.2177V70.7334H114.222V115.494ZM117.456 65.2255H89.2177V49.5834H117.456V65.2255Z" fill="#F9F9F9"/>
</g>
<defs>
<clipPath id="clip0">
<rect width="90" height="94" fill="white" transform="translate(33 27)"/>
</clipPath>
</defs>
</svg>
